<svg width="186" height="53" fill="none" xmlns="http://www.w3.org/2000/svg"><path d="M48.713 8.907c1.499 0 2.855-.013 4.212 0 3.45.042 5.911 1.773 6.69 4.902.294 1.181.265 2.457.26 3.69 0 .699-.431 1.32-1.232 1.258-.8-.062-.826-.77-.855-1.417-.051-1.162-.013-2.35-.248-3.48-.324-1.558-1.685-2.544-3.29-2.544-16.142-.009-32.285-.009-48.43 0a3.473 3.473 0 00-2.429 1.01 3.421 3.421 0 00-1.008 2.416c-.012 10.667-.012 21.337 0 32.01 0 1.98 1.527 3.458 3.6 3.502 1.254.026 2.51 0 3.768 0h43.89c2.693 0 4.16-1.42 4.211-4.073.02-.915 0-1.843.11-2.734.096-.462.347-1.23 1.052-1.23.704 0 1.083.759 1.119 1.179.222 2.658.16 5.294-2.022 7.307a6.416 6.416 0 01-4.486 1.749c-15.443 0-30.885-.066-46.326.046-3.872.033-7.334-2.429-7.275-7.192.076-6.048.018-12.101.018-18.15 0-3.484.118-6.971-.03-10.45-.178-4.132 1.761-6.87 6.507-7.843 8.864-1.82 17.677-3.872 26.508-5.83 3.67-.815 7.334-1.65 11.007-2.451 2.234-.491 4.613 1.35 4.67 3.625.04 1.5.01 3.004.01 4.7zm-30.118-.484l.08.39h28.034c0-1.481.012-2.905 0-4.328-.015-1.365-.82-1.97-2.17-1.681-7.842 1.666-15.684 3.334-23.526 5.005-.811.174-1.614.394-2.418.614z" fill="#fff"/><path d="M23.939 39.845a93.619 93.619 0 01-6.765-2.028 3.366 3.366 0 00-1.075-.262c-4.196-.156-7.79-3.228-7.79-8.875 0-5.648 3.463-9.24 8.235-9.24 4.773 0 7.92 3.693 7.92 8.874 0 4.502-2.099 7.39-5.036 8.407v.104a79.48 79.48 0 005.167 1.12l-.656 1.9zM22.05 28.42c0-3.52-1.835-7.133-5.583-7.133-3.855 0-5.743 3.54-5.717 7.342-.017 3.72 2.053 7.076 5.62 7.076 3.645 0 5.69-3.276 5.69-7.285h-.01zm16.66 5.414c0 1.3.026 2.447.106 3.435H36.77l-.13-2.055h-.053a4.758 4.758 0 01-1.78 1.734 4.803 4.803 0 01-2.416.607c-1.995 0-4.378-1.1-4.378-5.518v-7.366h2.307v6.977c0 2.393.734 4.008 2.83 4.008a3.354 3.354 0 001.84-.585c.541-.37.96-.892 1.204-1.498.14-.375.21-.771.209-1.17V24.67h2.307v9.163zm11.513 3.435l-.184-1.589h-.078a4.72 4.72 0 01-1.712 1.403 4.756 4.756 0 01-2.169.472c-2.571 0-3.881-1.795-3.881-3.617 0-3.045 2.726-4.71 7.631-4.686v-.26c0-1.04-.29-2.915-2.881-2.915a6.361 6.361 0 00-3.303.937l-.525-1.51c1.048-.677 2.569-1.12 4.17-1.12 3.88 0 4.825 2.641 4.825 5.156v4.71c-.018 1.01.052 2.02.208 3.019h-2.101zm-.35-6.429c-2.516-.053-5.376.392-5.376 2.838 0 1.483.998 2.185 2.177 2.185.67.017 1.33-.177 1.88-.556a3.138 3.138 0 001.188-1.552 2.34 2.34 0 00.13-.728V30.84zm6.616-2.759c0-1.3-.027-2.367-.104-3.41h2.046l.13 2.084h.054c.627-1.197 2.096-2.37 4.193-2.37 1.758 0 4.484 1.04 4.484 5.362v7.522h-2.307v-7.26c0-2.031-.76-3.723-2.937-3.723a3.295 3.295 0 00-1.94.664 3.255 3.255 0 00-1.163 1.679 3.275 3.275 0 00-.157 1.067v7.573h-2.3V28.08zm17.883-7.027v3.617h3.305v1.745h-3.305v6.794c0 1.56.443 2.446 1.731 2.446a5.24 5.24 0 001.33-.156l.104 1.718a5.74 5.74 0 01-2.046.31c-1.075 0-1.939-.336-2.491-.961-.654-.678-.887-1.797-.887-3.28v-6.871h-1.966V24.67h1.966v-3.019l2.26-.598zm17.885 9.81c0 4.66-3.251 6.689-6.319 6.689-3.436 0-6.084-2.497-6.084-6.48 0-4.217 2.78-6.69 6.292-6.69 3.647.002 6.111 2.631 6.111 6.481zm-10.07.13c0 2.76 1.599 4.84 3.855 4.84 2.204 0 3.855-2.055 3.855-4.893 0-2.134-1.075-4.84-3.802-4.84-2.726 0-3.907 2.502-3.907 4.895v-.002zm13.637-2.913a44.5 44.5 0 00-.106-3.41h2.019l.104 2.03h.08c.707-1.196 1.888-2.316 3.99-2.316.79-.01 1.564.228 2.21.68a3.727 3.727 0 011.387 1.84h.051a5.242 5.242 0 011.416-1.642 4.36 4.36 0 012.807-.88c1.677 0 4.169 1.1 4.169 5.467v7.417h-2.263v-7.129c0-2.42-.887-3.879-2.753-3.879-1.312 0-2.334.964-2.729 2.082a3.78 3.78 0 00-.184 1.146v7.782h-2.254V29.72c0-2.004-.887-3.46-2.649-3.46-1.44 0-2.491 1.146-2.857 2.29a3.14 3.14 0 00-.184 1.12v7.599h-2.254V28.08zm29.551 9.188l-.184-1.589h-.078a4.712 4.712 0 01-1.712 1.403 4.756 4.756 0 01-2.169.472c-2.569 0-3.881-1.795-3.881-3.617 0-3.045 2.726-4.71 7.632-4.686v-.26c0-1.04-.288-2.915-2.882-2.915a6.357 6.357 0 00-3.302.937l-.526-1.51c1.049-.677 2.571-1.12 4.17-1.12 3.881 0 4.825 2.641 4.825 5.156v4.71c-.013 1.01.061 2.02.222 3.019h-2.115zm-.341-6.429c-2.516-.053-5.375.392-5.375 2.838 0 1.483.997 2.185 2.176 2.185a3.17 3.17 0 001.881-.556 3.133 3.133 0 001.187-1.552c.082-.234.126-.48.131-.728V30.84zm6.607-2.759c0-1.3-.024-2.367-.104-3.41h2.046l.131 2.084h.053c.629-1.197 2.097-2.37 4.196-2.37 1.755 0 4.482 1.04 4.482 5.362v7.522h-2.308v-7.26c0-2.031-.76-3.723-2.937-3.723a3.297 3.297 0 00-1.94.664 3.255 3.255 0 00-1.163 1.679c-.11.345-.163.705-.155 1.067v7.573h-2.301V28.08zm17.779-6.95c.027.781-.549 1.406-1.467 1.406a1.377 1.377 0 01-1.297-.867 1.36 1.36 0 01-.093-.539 1.38 1.38 0 01.412-1.023 1.407 1.407 0 011.031-.407 1.374 1.374 0 011.328.877c.067.176.096.365.086.553zm-2.569 16.138V24.67h2.308v12.598h-2.308zm13.818 0l-.182-1.589h-.079a4.725 4.725 0 01-1.713 1.403 4.755 4.755 0 01-2.169.472c-2.569 0-3.881-1.795-3.881-3.617 0-3.045 2.729-4.71 7.632-4.686v-.26c0-1.04-.288-2.915-2.882-2.915a6.365 6.365 0 00-3.305.937l-.525-1.51c1.051-.677 2.571-1.12 4.169-1.12 3.882 0 4.826 2.641 4.826 5.156v4.71c-.013 1.01.061 2.02.222 3.019h-2.113zm-.339-6.429c-2.518-.053-5.377.392-5.377 2.838 0 1.483.997 2.185 2.176 2.185a3.172 3.172 0 001.882-.555 3.13 3.13 0 001.186-1.553 2.32 2.32 0 00.133-.728V30.84zm9.545.904l-1.836 5.518h-2.36l6.004-17.541h2.76l6.031 17.541h-2.438l-1.895-5.518h-6.266zm5.794-1.76l-1.729-5.06c-.395-1.146-.665-2.187-.92-3.201h-.051a59.114 59.114 0 01-.887 3.175l-1.735 5.086h5.322zM186 19.727V37.27h-2.281V19.727H186z" fill="#fff"/></svg>